<?xml version="1.0" encoding="UTF-8"?>
<svg xmlns="http://www.w3.org/2000/svg" id="Layer_1" data-name="Layer 1" viewBox="0 0 24 24">
  <path d="M1.288,11.985c-.82-.117-1.39-.877-1.272-1.697C.854,4.423,6.007,0,12,0c2.981,0,5.78,1.098,7.959,3.041l1.334-1.334c.63-.63,1.707-.184,1.707,.707V7c0,.552-.448,1-1,1h-4.586c-.891,0-1.337-1.077-.707-1.707l1.131-1.131c-1.615-1.384-3.663-2.162-5.838-2.162C7.49,3,3.614,6.315,2.985,10.712c-.107,.748-.749,1.288-1.483,1.288-.071,0-.142-.005-.214-.015Zm21.424,.03c-.817-.117-1.579,.453-1.697,1.273-.628,4.396-4.504,7.712-9.015,7.712-2.175,0-4.223-.779-5.837-2.163l1.13-1.13c.63-.63,.184-1.707-.707-1.707H2c-.552,0-1,.448-1,1v4.586c0,.891,1.077,1.337,1.707,.707l1.334-1.334c2.179,1.942,4.978,3.041,7.959,3.041,5.994,0,11.146-4.423,11.985-10.288,.117-.82-.453-1.58-1.273-1.697ZM12,6c-.829,0-1.5,.671-1.5,1.5v4.231c0,.508,.257,.982,.684,1.259l3,1.945c.253,.163,.535,.241,.815,.241,.491,0,.973-.241,1.26-.684,.45-.695,.252-1.625-.442-2.075l-2.316-1.501v-3.416c0-.829-.671-1.5-1.5-1.5Z"/>
</svg>
