<?xml version="1.0" encoding="UTF-8"?>
<!-- Generated by Pixelmator Pro 3.7.1 -->
<svg width="640" height="640" viewBox="0 0 640 640" xmlns="http://www.w3.org/2000/svg">
    <path id="Form" fill="#000000" fill-rule="evenodd" stroke="none" d="M 384.01593 365.442139 C 482.029388 267.745605 494.547699 255.816193 498.5 253.945587 C 502.437866 252.081787 505.215179 251.570709 511.574249 251.539551 C 518.059753 251.507782 520.657593 251.971985 524.776855 253.898743 C 527.597473 255.218048 531.420837 257.546783 533.273315 259.073761 C 535.125793 260.600708 538.169983 264.696289 540.038208 268.175018 C 543.076416 273.832367 543.438416 275.344452 543.467468 282.5 C 543.49469 289.200378 543.046326 291.474731 540.707275 296.5 C 538.217468 301.849213 530.570679 309.83255 470.207275 370.102753 C 416.24173 423.984985 401.485199 438.187042 397.5 440.078125 C 393.47702 441.987122 390.83905 442.455566 384 442.475372 C 376.124603 442.498199 375.039063 442.242828 369.22702 439 C 364.375854 436.293304 356.275452 428.817657 333.488464 406.017792 L 304.022858 376.535553 L 265.261444 415.105957 C 234.737198 445.479736 225.437454 454.166901 221.5 455.984711 C 218.247559 457.486298 214.053421 458.421143 209.5 458.659454 C 204.720169 458.909607 201.074463 458.507813 198.005386 457.392639 C 195.533356 456.494415 191.608658 454.450806 189.283844 452.851288 C 186.95903 451.25177 183.731125 448.016113 182.110718 445.660919 C 180.490295 443.305725 178.392822 439.01944 177.449646 436.135834 C 176.253601 432.479156 175.886978 429.018219 176.237854 424.696472 C 176.514542 421.288422 177.769867 416.25 179.027466 413.5 C 180.866867 409.477753 191.293503 398.485443 232.346252 357.288452 C 274.072601 315.415497 284.483704 305.483185 289.43924 302.820984 C 294.808502 299.936523 296.41275 299.56134 303.5 299.532532 C 310.214111 299.505219 312.461548 299.950226 317.482178 302.300964 C 322.572876 304.68454 327.976196 309.598022 353.740143 335.272034 L 384.01593 365.442139 Z"/>
    <path id="Form-Kopie" fill="#000000" fill-rule="evenodd" stroke="none" d="M 384.01593 226.442139 C 482.029388 128.745605 494.547699 116.816162 498.5 114.945557 C 502.437866 113.081787 505.215179 112.570679 511.574249 112.539551 C 518.059753 112.507751 520.657593 112.971985 524.776855 114.898743 C 527.597473 116.218018 531.420837 118.546753 533.273315 120.07373 C 535.125793 121.600708 538.169983 125.696289 540.038208 129.175018 C 543.076416 134.832367 543.438416 136.344452 543.467468 143.5 C 543.49469 150.200378 543.046326 152.474731 540.707275 157.5 C 538.217468 162.849213 530.570679 170.83255 470.207275 231.102753 C 416.24173 284.984985 401.485199 299.187042 397.5 301.078125 C 393.47702 302.987122 390.83905 303.455566 384 303.475372 C 376.124603 303.498199 375.039063 303.242828 369.22702 300 C 364.375854 297.293304 356.275452 289.817657 333.488464 267.017792 L 304.022858 237.535553 L 265.261444 276.105957 C 234.737198 306.479736 225.437454 315.166901 221.5 316.984711 C 218.247559 318.486298 214.053421 319.421143 209.5 319.659454 C 204.720169 319.909607 201.074463 319.507813 198.005386 318.392639 C 195.533356 317.494415 191.608658 315.450806 189.283844 313.851288 C 186.95903 312.25177 183.731125 309.016113 182.110718 306.660919 C 180.490295 304.305725 178.392822 300.01944 177.449646 297.135834 C 176.253601 293.479156 175.886978 290.018219 176.237854 285.696472 C 176.514542 282.288422 177.769867 277.25 179.027466 274.5 C 180.866867 270.477753 191.293503 259.485443 232.346252 218.288452 C 274.072601 176.415497 284.483704 166.483185 289.43924 163.820984 C 294.808502 160.936523 296.41275 160.56134 303.5 160.532532 C 310.214111 160.505219 312.461548 160.950226 317.482178 163.300964 C 322.572876 165.68454 327.976196 170.598022 353.740143 196.272034 L 384.01593 226.442139 Z"/>
    <path id="path1" fill="#000000" fill-rule="evenodd" stroke="none" d="M 344 543.661865 C 174.805267 543.793274 134.274658 543.575073 129 542.504395 C 125.425003 541.778748 119.466301 540.075623 115.758446 538.719727 C 112.050598 537.36377 106.425598 534.734619 103.258446 532.877197 C 100.091301 531.019714 93.224998 525.224976 88 520 C 82.775002 514.775024 76.959518 507.874451 75.076714 504.665466 C 73.193909 501.456482 70.395226 495.275452 68.857422 490.929779 C 67.319626 486.584137 65.557884 479.309692 64.942444 474.764282 C 64.141937 468.852112 63.919739 417.120178 64.161736 293 C 64.5 119.5 64.5 119.5 67.249908 114.283447 C 68.76236 111.414307 71.648438 107.418213 73.663429 105.403259 C 75.678413 103.388245 79.84095 100.56366 82.913521 99.126404 C 87.378868 97.037537 90.00515 96.513123 96 96.513123 C 101.99485 96.513123 104.621132 97.037537 109.086479 99.126404 C 112.15905 100.56366 116.321587 103.388245 118.336571 105.403259 C 120.351563 107.418213 123.23764 111.414307 124.750092 114.283447 C 127.5 119.5 127.5 119.5 128 294.578064 C 128.5 469.656128 128.5 469.656128 131.193558 473.187347 C 132.675003 475.129517 135.43187 477.451599 137.319916 478.347534 C 140.451889 479.83374 158.794128 479.99942 346.626343 480.238251 C 552.5 480.5 552.5 480.5 557.716553 483.249908 C 560.585693 484.76236 564.581787 487.648438 566.596741 489.663422 C 568.611755 491.678406 571.43634 495.840942 572.873596 498.913513 C 574.962463 503.378845 575.486877 506.005157 575.486877 512 C 575.486877 517.994873 574.962463 520.621155 572.873596 525.086487 C 571.43634 528.159058 568.611755 532.321594 566.596741 534.336548 C 564.581787 536.351563 560.585693 539.237671 557.716553 540.750122 C 552.5 543.5 552.5 543.5 344 543.661865 Z"/>
</svg>
